<svg xmlns="http://www.w3.org/2000/svg" fill="none" viewBox="0 0 24 24" id="Maestro--Streamline-Svg-Logos" height="24" width="24">
  <desc>
    Maestro Streamline Icon: https://streamlinehq.com
  </desc>
  <path fill="#6c6bbd" d="M15.176925 15.853625H8.8225V4.43395h6.354425v11.419675Z" stroke-width="0.25"></path>
  <path fill="#d32011" d="M9.22615 10.144025c0 -2.316525 1.084625 -4.380025 2.77365 -5.709825 -1.23515 -0.9724 -2.793975 -1.552825 -4.488075 -1.552825C3.501075 2.881375 0.25 6.132925 0.25 10.144025s3.251075 7.26265 7.261725 7.26265c1.6941 0 3.252925 -0.5804 4.488075 -1.552825 -1.689025 -1.3298 -2.77365 -3.3933 -2.77365 -5.709825Z" stroke-width="0.25"></path>
  <path fill="#0099df" d="M23.750025 10.144025c0 4.0111 -3.2511 7.26265 -7.261725 7.26265 -1.694125 0 -3.25295 -0.5804 -4.48855 -1.552825 1.6895 -1.3298 2.774125 -3.3933 2.774125 -5.709825 0 -2.316525 -1.084625 -4.380025 -2.774125 -5.709825 1.2356 -0.9724 2.794425 -1.552825 4.48855 -1.552825 4.010625 0 7.261725 3.25155 7.261725 7.26265Z" stroke-width="0.25"></path>
  <path fill="#110f0d" d="M17.327 19.0805c0.0845 0 0.205925 0.01615 0.298725 0.052625l-0.129275 0.39525c-0.08865 -0.036475 -0.1773 -0.048475 -0.262275 -0.048475 -0.27425 0 -0.4114 0.1773 -0.4114 0.4959v1.081375h-0.419725v-1.9282h0.415575v0.2341c0.108975 -0.16945 0.266425 -0.282575 0.508375 -0.282575Zm-1.550525 0.4317h-0.685675v0.8713c0 0.193475 0.06835 0.32275 0.278425 0.32275 0.108975 0 0.246125 -0.036475 0.370775 -0.10895l0.120975 0.35875c-0.132975 0.092825 -0.3426 0.149625 -0.524075 0.149625 -0.49635 0 -0.6695 -0.266425 -0.6695 -0.714325v-0.87915h-0.39155v-0.383225h0.39155v-0.585025h0.4234v0.585025h0.685675v0.383225Zm-5.369525 0.411425c0.0448 -0.278425 0.2138 -0.4682 0.512525 -0.4682 0.270125 0 0.443725 0.16945 0.48805 0.4682h-1.000575Zm1.436475 0.16945c-0.004175 -0.601175 -0.3754 -1.012575 -0.9161 -1.012575 -0.5647 0 -0.95995 0.4114 -0.95995 1.012575 0 0.612725 0.411425 1.012125 0.988575 1.012125 0.29045 0 0.5564 -0.0725 0.7905 -0.270125l-0.205925 -0.310725c-0.16115 0.129275 -0.3671 0.201775 -0.56055 0.201775 -0.270125 0 -0.516225 -0.12515 -0.576725 -0.4719h1.43185c0.00415 -0.05265 0.008325 -0.104825 0.008325 -0.16115Zm1.84325 -0.4719c-0.116825 -0.07295 -0.354625 -0.16575 -0.600725 -0.16575 -0.22995 0 -0.367075 0.08495 -0.367075 0.22625 0 0.128825 0.144975 0.1653 0.32645 0.1893l0.197625 0.028175c0.4197 0.06095 0.67365 0.23825 0.67365 0.577175 0 0.367075 -0.32275 0.62935 -0.879125 0.62935 -0.314925 0 -0.60535 -0.080825 -0.8353 -0.250275l0.197625 -0.3269c0.1413 0.10895 0.3514 0.201775 0.641825 0.201775 0.286275 0 0.439575 -0.0845 0.439575 -0.2341 0 -0.1085 -0.108975 -0.16945 -0.338925 -0.201325l-0.197625 -0.02815c-0.431725 -0.06095 -0.665825 -0.254425 -0.665825 -0.568875 0 -0.383225 0.3149 -0.617325 0.802975 -0.617325 0.306575 0 0.585 0.068775 0.786325 0.201775l-0.18145 0.3389Zm5.17375 -0.1422c-0.08635 0 -0.166225 0.015225 -0.240575 0.04525 -0.073875 0.030475 -0.13805 0.07295 -0.192075 0.127425 -0.054025 0.0545 -0.0965 0.12005 -0.12745 0.19625 -0.030925 0.076175 -0.046175 0.160225 -0.046175 0.25165 0 0.091875 0.01525 0.17545 0.046175 0.251625 0.03095 0.0762 0.073425 0.141775 0.12745 0.19625 0.054025 0.054475 0.1182 0.096975 0.192075 0.12745 0.07435 0.030475 0.154225 0.04525 0.240575 0.04525 0.08635 0 0.166675 -0.014775 0.24055 -0.04525 0.07435 -0.030475 0.139 -0.072975 0.193025 -0.12745 0.054925 -0.054475 0.097425 -0.12005 0.128825 -0.19625 0.030925 -0.076175 0.04615 -0.15975 0.04615 -0.251625 0 -0.091425 -0.015225 -0.175475 -0.04615 -0.25165 -0.0314 -0.0762 -0.0739 -0.14175 -0.128825 -0.19625 -0.054025 -0.054475 -0.118675 -0.09695 -0.193025 -0.127425 -0.073875 -0.030025 -0.1542 -0.04525 -0.24055 -0.04525Zm0 -0.398475c0.1496 0 0.288125 0.02585 0.41555 0.078025 0.12745 0.0517 0.2378 0.123275 0.3306 0.21425 0.093275 0.09095 0.165775 0.19855 0.2184 0.322275 0.05265 0.124225 0.078975 0.25905 0.078975 0.4045 0 0.145425 -0.026325 0.280275 -0.078975 0.404475 -0.052625 0.12375 -0.125125 0.2318 -0.2184 0.32275 -0.0928 0.09095 -0.20315 0.162075 -0.3306 0.21425 -0.127425 0.0517 -0.26595 0.077575 -0.41555 0.077575 -0.1496 0 -0.288125 -0.025875 -0.415575 -0.077575 -0.127425 -0.052175 -0.236875 -0.1233 -0.3292 -0.21425 -0.09235 -0.09095 -0.16485 -0.199 -0.2175 -0.32275 -0.052625 -0.1242 -0.07895 -0.25905 -0.07895 -0.404475 0 -0.14545 0.026325 -0.280275 0.07895 -0.4045 0.05265 -0.123725 0.12515 -0.231325 0.2175 -0.322275 0.092325 -0.090975 0.201775 -0.16255 0.3292 -0.21425 0.12745 -0.052175 0.265975 -0.078025 0.415575 -0.078025Zm-10.904375 1.012575c0 -0.338925 0.2221 -0.61735 0.585025 -0.61735 0.346775 0 0.580875 0.266425 0.580875 0.61735 0 0.350925 -0.2341 0.616875 -0.580875 0.616875 -0.362925 0 -0.585025 -0.27795 -0.585025 -0.616875Zm1.56115 0v-0.9641h-0.419275v0.2341c-0.133425 -0.173625 -0.33475 -0.282575 -0.609025 -0.282575 -0.5407 0 -0.9641 0.4234 -0.9641 1.012575 0 0.588725 0.4234 1.0126 0.9641 1.0126 0.274275 0 0.4756 -0.108975 0.609025 -0.2826v0.2341h0.419275v-0.9641Zm-2.363625 0.9641v-1.2102c0 -0.45575 -0.29045 -0.762325 -0.758175 -0.766475 -0.246125 -0.004175 -0.500525 0.072475 -0.677825 0.34305 -0.133 -0.213775 -0.343075 -0.34305 -0.637675 -0.34305 -0.205475 0 -0.40725 0.060475 -0.5647 0.286275v-0.2378h-0.41925v1.9282h0.4234V19.98825c0 -0.33475 0.185625 -0.512525 0.4719 -0.512525 0.278425 0 0.419725 0.181475 0.419725 0.508375v1.073075h0.4234V19.98825c0 -0.33475 0.19395 -0.512525 0.4719 -0.512525 0.28675 0 0.423875 0.181475 0.423875 0.508375v1.073075h0.423425Z" stroke-width="0.25"></path>
</svg>