<svg xmlns="http://www.w3.org/2000/svg" fill="none" viewBox="0 0 24 24" id="Amex-Digital--Streamline-Svg-Logos" height="24" width="24">
  <desc>
    Amex Digital Streamline Icon: https://streamlinehq.com
  </desc>
  <path fill="#ffffff" d="M23.75 0.25H0.25v23.5h23.5V0.25Z" stroke-width="0.25"></path>
  <path fill="#006fcf" d="M0.25 0.25v23.5h23.5V20.037H20.507l-1.1985 -1.402 -1.2455 1.402H8.851v-7.465H5.8115l3.7995 -8.601h3.697l0.893 1.9505v-1.9505h4.5905l0.7675 2.0445 0.752 -2.0445H23.75V0.25H0.25Zm20.8445 4.935 -1.2065 3.1805 -0.321 0.861975 -0.329 -0.861975 -1.214 -3.1805H15.3685v6.266975h1.598v-4.081l-0.008 -0.822975 0.3135 0.822975 1.5275 4.081h1.5195l1.5355 -4.081 0.2975 -0.814975v4.895975H23.75V5.185H21.0945Zm-10.622 0L7.6995 11.451975h1.817025L10.0025 10.2455h3.0395l0.4855 1.206475h1.841L12.611 5.185H10.4725Zm0.736025 2.123 0.313475 -0.783025 0.3135 0.783025 0.65 1.582h-1.927l0.650025 -1.582ZM21.22 12.579975l-1.888 2.028525 -1.88 -2.028525H10.1355V18.823h5.233v-1.355025h-3.635V16.379h3.5645v-1.347025H11.7335V13.935h3.635v-1.355025L18.29 15.713l-2.9215 3.11h2.021l1.9035 -2.036525 1.8955 2.036525h2.075525L20.3345 15.6895l2.929525 -3.109525H21.22Zm0.7595 3.102L23.75 17.4835v-3.58l-1.7705 1.778475Z" stroke-width="0.25"></path>
</svg>